<svg width="85" height="85" fill="none" xmlns="http://www.w3.org/2000/svg"><path d="M37.749 3.4a1.7 1.7 0 00-1.677 1.424l-1.654 10.124a28.515 28.515 0 00-5.67 2.33l-8.355-5.966a1.7 1.7 0 00-2.188.18l-6.614 6.607a1.7 1.7 0 00-.189 2.178l5.877 8.407a28.766 28.766 0 00-2.377 5.711l-10.08 1.677a1.7 1.7 0 00-1.419 1.677v9.35a1.7 1.7 0 001.401 1.676l10.088 1.787a28.593 28.593 0 002.37 5.71l-5.95 8.325a1.7 1.7 0 00.18 2.188l6.61 6.614a1.7 1.7 0 002.175.192l8.424-5.896a28.642 28.642 0 005.688 2.347l1.683 10.137a1.7 1.7 0 001.677 1.421h9.35a1.7 1.7 0 001.676-1.404l1.803-10.177a28.648 28.648 0 005.661-2.374l8.48 5.95a1.7 1.7 0 002.179-.19l6.61-6.617a1.7 1.7 0 00.176-2.195L67.638 56.2a28.514 28.514 0 002.324-5.628l10.23-1.793a1.7 1.7 0 001.405-1.677v-9.35a1.7 1.7 0 00-1.425-1.677l-10.213-1.67a28.705 28.705 0 00-2.33-5.621l5.962-8.497a1.7 1.7 0 00-.189-2.178l-6.614-6.61a1.7 1.7 0 00-2.195-.177l-8.37 6.02a28.485 28.485 0 00-5.668-2.36l-1.78-10.174A1.7 1.7 0 0047.1 3.4h-9.35zm1.447 3.4h6.475l1.693 9.665a1.7 1.7 0 001.262 1.358 25.158 25.158 0 016.953 2.892 1.7 1.7 0 001.872-.073l7.956-5.717 4.579 4.578-5.665 8.072a1.7 1.7 0 00-.066 1.853 25.374 25.374 0 012.865 6.92 1.7 1.7 0 001.375 1.264l9.702 1.588v6.474l-9.722 1.707a1.7 1.7 0 00-1.355 1.268 25.157 25.157 0 01-2.859 6.916 1.7 1.7 0 00.077 1.87l5.744 7.972-4.579 4.582-8.058-5.655a1.7 1.7 0 00-1.86-.06 25.316 25.316 0 01-6.936 2.906 1.7 1.7 0 00-1.258 1.351L45.674 78.2H39.19l-1.6-9.626a1.7 1.7 0 00-1.27-1.37 25.335 25.335 0 01-6.978-2.883 1.7 1.7 0 00-1.85.067l-7.995 5.6-4.582-4.588 5.651-7.899a1.7 1.7 0 00.07-1.87 25.259 25.259 0 01-2.909-6.995 1.701 1.701 0 00-1.351-1.262l-9.573-1.7V39.19l9.566-1.59a1.701 1.701 0 001.371-1.266 25.425 25.425 0 012.909-7 1.7 1.7 0 00-.06-1.855l-5.584-7.982 4.585-4.582 7.925 5.664a1.7 1.7 0 001.863.073 25.211 25.211 0 016.976-2.865 1.7 1.7 0 001.272-1.378l1.57-9.609zM42.5 28.9c-7.49 0-13.6 6.109-13.6 13.6 0 7.49 6.11 13.6 13.6 13.6 7.49 0 13.6-6.11 13.6-13.6 0-7.491-6.11-13.6-13.6-13.6zm0 3.4c5.653 0 10.2 4.547 10.2 10.2s-4.547 10.2-10.2 10.2-10.2-4.547-10.2-10.2c0-5.654 4.547-10.2 10.2-10.2z" fill="#455560"/><path fill="#C4C4C4" d="M60.067 47.033H74.8v.567H60.067z"/></svg>