<svg xmlns="http://www.w3.org/2000/svg" viewBox="0 0 48 48" width="144" height="144"><path d="M20.5 4a1.5 1.5 0 00-1.434 2h-4.425a5.5 5.5 0 00-4.577 2.45L7.697 12H7.5a1.5 1.5 0 100 3h.764a1.5 1.5 0 00.388.008l2.473 23.078A5.519 5.519 0 0016.594 43h14.81a5.519 5.519 0 005.469-4.914l2.475-23.078a1.5 1.5 0 00.38-.008h.772a1.5 1.5 0 100-3h-.197l-2.367-3.55A5.505 5.505 0 0033.359 6h-4.425A1.5 1.5 0 0027.5 4h-7zm-5.86 5h18.72c.837 0 1.615.416 2.08 1.113L36.696 12H11.303l1.258-1.887a1.5 1.5 0 00.002-.002A2.489 2.489 0 0114.64 9zm-2.97 6h24.66l-2.44 22.766A2.483 2.483 0 0131.405 40h-14.81a2.48 2.48 0 01-2.485-2.234L11.67 15z"/></svg>